<?xml version="1.0" standalone="no"?>
<!DOCTYPE svg PUBLIC "-//W3C//DTD SVG 20010904//EN"
 "http://www.w3.org/TR/2001/REC-SVG-20010904/DTD/svg10.dtd">
<svg version="1.0" xmlns="http://www.w3.org/2000/svg"
 width="336.000000pt" height="350.000000pt" viewBox="0 0 336.000000 350.000000"
 preserveAspectRatio="xMidYMid meet">

<g transform="translate(0.000000,350.000000) scale(0.100000,-0.100000)"
fill="#000000" stroke="none">
<path d="M1910 3477 c-75 -23 -103 -37 -170 -87 -21 -16 -66 -33 -115 -44 -44
-10 -117 -34 -162 -53 l-83 -35 -82 35 c-137 58 -189 70 -297 65 -83 -4 -104
-8 -157 -36 -106 -54 -180 -145 -215 -262 -10 -35 -30 -61 -92 -119 -92 -88
-103 -105 -112 -192 l-7 -66 -85 -64 c-125 -94 -216 -195 -263 -293 -113 -237
-87 -489 67 -664 l32 -37 -31 85 c-26 72 -31 104 -35 205 -8 176 23 282 110
381 43 49 231 204 247 204 5 0 -7 -33 -25 -74 -45 -96 -90 -253 -115 -401 -20
-119 -30 -259 -50 -705 -11 -237 -43 -534 -81 -733 -11 -60 -19 -113 -17 -118
6 -18 99 146 148 262 27 62 64 166 81 231 35 126 41 129 54 28 24 -185 84
-397 155 -545 43 -89 178 -310 185 -303 2 2 -19 68 -45 148 -91 272 -126 533
-105 775 9 101 7 105 40 -94 23 -138 51 -218 135 -377 38 -73 79 -156 90 -185
l20 -53 -24 -36 c-25 -39 -66 -116 -66 -125 0 -4 19 9 41 29 80 68 165 95 294
96 193 0 382 -91 476 -229 38 -57 40 -58 108 -67 l49 -6 7 68 c7 65 2 210 -11
306 l-6 46 -95 37 c-168 64 -309 95 -431 95 -133 0 -163 -13 -252 -104 -35
-36 -68 -66 -72 -66 -12 0 -38 100 -38 145 0 51 24 77 133 139 97 55 222 90
292 83 27 -3 124 -28 214 -56 90 -28 170 -51 178 -51 15 0 12 35 -8 87 -9 25
-9 25 -154 52 -56 11 -120 24 -143 30 l-42 12 0 99 0 98 51 17 c28 10 74 18
102 19 l50 1 24 -60 c51 -129 76 -185 81 -181 2 3 -4 28 -13 56 -9 28 -15 53
-13 56 7 7 96 -248 127 -368 38 -142 68 -321 76 -460 4 -60 10 -108 13 -109 4
0 15 -2 25 -4 9 -2 23 6 31 16 13 20 14 20 19 -1 4 -17 13 -20 61 -20 40 0 58
4 62 14 3 8 0 65 -6 126 -6 61 -10 113 -8 115 2 2 58 -5 123 -16 229 -37 313
-23 375 63 l29 40 21 -34 c11 -18 39 -70 61 -116 22 -45 42 -82 45 -82 14 0
114 105 114 120 0 9 -20 58 -45 110 -25 51 -44 94 -42 96 2 2 30 -34 62 -81
l59 -85 20 31 19 31 -42 85 c-23 47 -86 153 -140 236 -109 168 -134 214 -163
297 -18 53 -18 56 -1 68 128 90 189 140 245 201 97 105 108 132 108 273 l0
115 60 119 60 119 -4 -75 c-3 -41 -16 -109 -29 -150 -14 -41 -24 -77 -22 -79
2 -2 19 14 37 34 71 81 120 154 167 250 48 95 50 98 58 70 4 -17 8 -85 8 -152
0 -68 1 -123 2 -123 1 0 20 56 42 124 58 178 75 283 68 436 -12 267 -98 460
-296 665 -53 55 -107 120 -120 145 -103 195 -310 374 -520 450 -178 65 -370
79 -511 37z m-697 -355 c-54 -54 -114 -120 -133 -146 -30 -41 -35 -45 -38 -27
-7 42 47 149 107 212 31 33 87 59 124 59 l39 0 -99 -98z m1371 33 c166 -29
264 -74 316 -147 38 -52 38 -63 1 -43 -41 21 -125 51 -201 72 -83 22 -433 25
-550 5 -138 -25 -294 -70 -420 -122 -173 -71 -166 -71 -175 -20 -4 23 -5 43
-3 45 15 15 236 111 321 139 98 33 274 71 362 79 105 9 270 6 349 -8z m-1045
-322 c1 -18 -40 -28 -50 -12 -16 25 -29 86 -23 104 4 9 16 20 28 24 19 8 22 3
33 -48 6 -31 12 -61 12 -68z m-98 37 c3 -19 9 -46 13 -60 5 -19 2 -28 -14 -38
-19 -12 -22 -9 -40 30 -23 50 -25 79 -8 96 21 21 42 9 49 -28z m-62 -96 c10
-24 8 -30 -35 -77 -98 -108 -188 -276 -209 -390 -12 -63 -29 -27 -30 61 0 87
22 145 96 256 39 58 146 176 160 176 3 0 11 -12 18 -26z m-386 -449 c29 -99
36 -143 56 -315 11 -96 38 -274 61 -395 46 -251 70 -423 70 -498 l0 -52 -35
55 c-66 103 -163 305 -193 400 -107 335 -112 765 -14 1064 l27 81 6 -145 c4
-80 14 -167 22 -195z m1339 10 c52 -82 135 -216 183 -297 48 -81 92 -145 97
-142 9 6 3 171 -13 337 -6 60 -9 111 -6 113 11 12 112 -306 137 -433 7 -35 16
-63 19 -63 4 0 18 29 30 65 13 36 25 65 28 65 3 0 2 -19 -1 -42 -5 -37 -5 -40
5 -18 15 33 29 285 22 383 -3 42 -3 77 1 77 12 0 123 -241 135 -292 18 -77 16
-81 -38 -101 -32 -11 -52 -25 -56 -38 -10 -32 2 -35 50 -11 69 33 75 31 75
-33 l0 -55 -52 0 c-29 0 -66 -7 -82 -15 -16 -9 -31 -13 -33 -11 -3 3 9 12 26
21 17 8 31 18 31 21 0 10 -65 -32 -65 -42 0 -5 -9 -22 -19 -37 -24 -36 -36
-100 -29 -157 6 -52 18 -70 45 -70 19 0 24 9 63 114 25 69 41 38 20 -40 -8
-32 -15 -100 -15 -151 0 -81 -3 -101 -26 -146 -54 -106 -273 -285 -413 -338
l-56 -21 -69 22 c-145 46 -468 222 -571 311 -59 50 -21 6 64 -75 76 -74 195
-164 302 -229 47 -29 59 -41 50 -50 -6 -6 -11 -46 -11 -98 0 -90 6 -123 20
-114 5 3 56 -12 114 -34 76 -28 113 -47 129 -67 12 -15 27 -35 34 -43 40 -51
-13 -63 -75 -18 -46 34 -192 112 -192 102 0 -2 26 -22 58 -44 31 -22 73 -53
92 -71 l35 -31 -66 4 c-54 4 -94 17 -220 72 -85 37 -159 73 -166 79 -6 6 -28
43 -48 81 -21 39 -63 120 -96 180 -101 190 -168 437 -185 674 l-6 86 29 -45
c38 -57 109 -137 134 -151 17 -9 16 -2 -11 50 -78 156 -79 313 -4 493 27 65
129 244 145 253 19 12 -89 -218 -130 -279 -18 -25 -28 -46 -23 -46 13 0 171
166 238 250 75 96 148 217 170 283 9 29 19 56 21 60 6 10 49 -52 175 -248z
m-854 -327 c21 -11 28 -25 38 -78 8 -36 23 -92 35 -124 17 -46 20 -72 15 -113
-8 -72 -29 -119 -55 -126 -33 -8 -115 39 -170 98 -61 67 -78 124 -62 210 24
130 100 181 199 133z m585 -1419 c45 -11 120 -38 166 -60 83 -38 85 -39 202
-39 141 0 151 3 138 36 -16 44 7 18 84 -94 100 -144 110 -170 38 -91 -33 36
-71 73 -85 82 l-25 17 -11 -53 -11 -52 -57 -18 c-31 -9 -70 -17 -87 -17 -38 0
-376 77 -386 87 -3 5 -21 51 -39 103 -17 52 -34 101 -37 108 -7 17 16 15 110
-9z"/>
<path d="M2005 2085 c13 -6 428 -125 436 -125 3 0 6 7 6 16 0 38 -198 98 -357
108 -52 3 -90 4 -85 1z"/>
<path d="M2020 1906 c-82 -24 -190 -71 -190 -82 0 -12 93 -184 100 -184 4 0 3
25 -2 56 -5 31 -7 59 -4 61 11 11 26 -10 32 -45 14 -79 45 -112 104 -112 31 0
71 31 96 75 10 19 12 19 37 2 31 -20 32 -19 46 57 6 33 13 61 14 63 2 2 30
-17 62 -42 32 -25 60 -43 62 -41 3 2 0 21 -6 43 -15 52 -15 51 17 55 25 3 24
6 -33 43 -118 78 -203 91 -335 51z"/>
<path d="M2350 1896 c0 -3 9 -10 20 -16 11 -6 20 -8 20 -6 0 3 -9 10 -20 16
-11 6 -20 8 -20 6z"/>
<path d="M1970 1563 c1 -29 31 -42 115 -51 50 -5 92 -7 94 -5 3 2 -4 9 -14 17
-10 7 -16 17 -12 22 3 5 -26 8 -68 6 -41 -2 -83 1 -94 8 -12 6 -21 7 -21 3z"/>
<path d="M2760 1519 c0 -15 27 -22 56 -15 32 8 29 12 -18 19 -22 3 -38 2 -38
-4z"/>
<path d="M2692 1385 c-6 -14 -7 -25 -2 -25 9 0 25 39 18 46 -3 2 -10 -7 -16
-21z"/>
<path d="M2162 680 c0 -8 4 -26 8 -40 6 -20 8 -21 8 -5 0 11 -3 29 -8 40 -5
12 -8 14 -8 5z"/>
<path d="M1408 1940 c19 -4 47 -20 63 -36 16 -15 29 -23 29 -17 0 23 -61 63
-93 62 l-32 -1 33 -8z"/>
<path d="M1316 1892 c-2 -4 -7 -25 -10 -47 -7 -45 -2 -38 13 18 9 35 8 46 -3
29z"/>
<path d="M1451 1774 c9 -10 19 -28 23 -38 9 -25 20 -13 11 13 -3 12 -16 26
-28 32 -21 11 -21 11 -6 -7z"/>
<path d="M1452 1030 c-18 -4 -35 -10 -38 -12 -2 -3 37 -17 88 -31 50 -15 94
-25 96 -23 7 7 -8 45 -24 61 -16 16 -67 18 -122 5z"/>
</g>
</svg>
